<svg width="28" height="28" viewBox="0 0 28 28" fill="none" xmlns="http://www.w3.org/2000/svg">
<path d="M19.104 3.79148C20.4565 3.79552 21.7526 4.33462 22.709 5.29103C23.6654 6.24744 24.2045 7.54345 24.2085 8.89602V19.104C24.2045 20.4565 23.6654 21.7526 22.709 22.709C21.7526 23.6654 20.4565 24.2045 19.104 24.2085H8.89602C7.54345 24.2045 6.24744 23.6654 5.29103 22.709C4.33462 21.7526 3.79552 20.4565 3.79148 19.104V8.89602C3.79552 7.54345 4.33462 6.24744 5.29103 5.29103C6.24744 4.33462 7.54345 3.79552 8.89602 3.79148H19.104ZM19.104 1.75H8.89602C4.96562 1.75 1.75 4.96562 1.75 8.89602V19.104C1.75 23.0344 4.96562 26.25 8.89602 26.25H19.104C23.0344 26.25 26.25 23.0344 26.25 19.104V8.89602C26.25 4.96562 23.0344 1.75 19.104 1.75Z" fill="#A0A0A0"/>
<path d="M20.6352 8.896C20.3324 8.896 20.0363 8.80619 19.7845 8.63793C19.5327 8.46968 19.3364 8.23053 19.2205 7.95073C19.1047 7.67093 19.0743 7.36305 19.1334 7.06601C19.1925 6.76898 19.3383 6.49614 19.5525 6.28199C19.7666 6.06784 20.0395 5.922 20.3365 5.86292C20.6335 5.80384 20.9414 5.83416 21.2212 5.95006C21.501 6.06595 21.7402 6.26222 21.9084 6.51403C22.0767 6.76584 22.1665 7.06189 22.1665 7.36475C22.1669 7.56595 22.1276 7.76527 22.0508 7.95124C21.974 8.13722 21.8612 8.30619 21.719 8.44847C21.5767 8.59074 21.4077 8.70352 21.2217 8.78032C21.0358 8.85712 20.8364 8.89643 20.6352 8.896ZM14 9.91647C14.8076 9.91647 15.5972 10.156 16.2687 10.6047C16.9402 11.0534 17.4636 11.6911 17.7727 12.4373C18.0818 13.1835 18.1626 14.0045 18.0051 14.7966C17.8475 15.5888 17.4586 16.3164 16.8875 16.8875C16.3164 17.4586 15.5888 17.8475 14.7967 18.005C14.0045 18.1626 13.1835 18.0817 12.4373 17.7727C11.6911 17.4636 11.0534 16.9402 10.6047 16.2687C10.156 15.5971 9.91649 14.8076 9.91649 14C9.91765 12.9173 10.3482 11.8793 11.1138 11.1138C11.8794 10.3482 12.9173 9.91762 14 9.91647ZM14 7.87498C12.7886 7.87498 11.6044 8.23421 10.5971 8.90723C9.58988 9.58025 8.80483 10.5368 8.34124 11.656C7.87765 12.7752 7.75636 14.0068 7.99269 15.1949C8.22903 16.383 8.81238 17.4744 9.66897 18.331C10.5256 19.1876 11.6169 19.771 12.8051 20.0073C13.9932 20.2436 15.2247 20.1223 16.3439 19.6587C17.4631 19.1952 18.4197 18.4101 19.0928 17.4028C19.7658 16.3956 20.125 15.2114 20.125 14C20.125 12.3755 19.4797 10.8176 18.331 9.66895C17.1824 8.52029 15.6245 7.87498 14 7.87498Z" fill="#A0A0A0"/>
</svg>
