<svg width="26" height="26" viewBox="0 0 26 26" fill="none" xmlns="http://www.w3.org/2000/svg">
<path d="M13 0C5.82098 0 0 5.97188 0 13.3308C0 19.2215 3.72589 24.2125 8.89107 25.9768C8.96352 25.9926 9.03747 26.0003 9.11161 26C9.5933 26 9.77902 25.646 9.77902 25.3384C9.77902 25.0192 9.76741 24.1835 9.76161 23.0692C9.33159 23.17 8.89167 23.2226 8.45 23.2259C5.94866 23.2259 5.37991 21.2817 5.37991 21.2817C4.78795 19.7438 3.93482 19.3317 3.93482 19.3317C2.80313 18.5366 3.92902 18.5134 4.01607 18.5134H4.02187C5.32768 18.6295 6.0125 19.8947 6.0125 19.8947C6.6625 21.0322 7.53304 21.3514 8.31071 21.3514C8.82493 21.3411 9.33119 21.2224 9.79643 21.0032C9.9125 20.1442 10.2491 19.5581 10.6205 19.2215C7.73616 18.8848 4.70089 17.7415 4.70089 12.6344C4.70089 11.1777 5.2058 9.98796 6.03571 9.05939C5.90223 8.72278 5.45536 7.36474 6.16339 5.53081C6.25837 5.50809 6.35598 5.49832 6.45357 5.50179C6.92366 5.50179 7.98571 5.6817 9.73839 6.90045C11.868 6.30461 14.1204 6.30461 16.25 6.90045C18.0027 5.6817 19.0647 5.50179 19.5348 5.50179C19.6324 5.49832 19.73 5.50809 19.825 5.53081C20.533 7.36474 20.0862 8.72278 19.9527 9.05939C20.7826 9.99376 21.2875 11.1835 21.2875 12.6344C21.2875 17.7531 18.2464 18.879 15.3504 19.2098C15.8147 19.6219 16.2326 20.4344 16.2326 21.6764C16.2326 23.4581 16.2152 24.8974 16.2152 25.3326C16.2152 25.646 16.3951 26 16.8768 26C16.9548 26.0004 17.0326 25.9926 17.1089 25.9768C22.2799 24.2125 26 19.2157 26 13.3308C26 5.97188 20.179 0 13 0Z" fill="#A0A0A0"/>
</svg>
